<svg width="1408" height="263" viewBox="0 0 1408 263" fill="none" xmlns="http://www.w3.org/2000/svg">
<path d="M269.3 175.03C269.3 144.06 252.77 128.48 227.5 128.48C202.23 128.48 185.7 144.06 185.7 175.03V225H204.32V175.03C204.32 156.03 212.49 146.53 227.5 146.53C242.51 146.53 250.68 156.03 250.68 175.03V225H269.3V175.03Z" fill="white"/>
<path d="M279.75 177.5C279.18 203.91 302.36 227.09 328.77 226.52C341.88 226.52 354.42 219.3 358.98 209.99V225H377.6V177.5C378.17 151.09 355.18 127.91 328.77 128.48C302.36 127.91 279.18 151.09 279.75 177.5ZM359.17 177.5C359.17 194.79 346.06 208.47 328.96 208.47C311.86 208.47 298.37 194.79 298.37 177.5C298.37 160.21 311.67 146.53 328.96 146.53C346.25 146.53 359.17 160.21 359.17 177.5Z" fill="white"/>
<path d="M472.66 175.03C472.66 144.06 456.13 128.48 430.86 128.48C405.59 128.48 389.06 144.06 389.06 175.03V225H407.68V175.03C407.68 156.03 415.85 146.53 430.86 146.53C445.87 146.53 454.04 156.03 454.04 175.03V225H472.66V175.03Z" fill="white"/>
<path d="M482.16 196.5C482.16 215.31 499.45 226.52 519.4 226.52C541.44 226.52 556.64 216.45 556.64 198.02C556.64 184.53 549.23 177.12 540.11 173.89C535.55 172.18 529.85 170.66 522.82 169.14C508.57 165.91 502.3 163.63 502.3 156.6C502.3 149.76 509.14 145.01 518.45 145.01C528.14 145.01 535.74 149.95 535.74 156.98H553.6C553.6 148.05 550.37 141.21 543.72 136.08C537.26 130.95 528.9 128.48 518.83 128.48C499.26 128.48 483.68 139.69 483.68 155.27C483.68 168.19 490.9 175.41 499.45 178.64C503.82 180.16 509.33 181.68 516.17 183.2C531.18 186.43 538.02 188.9 538.02 197.26C538.02 204.86 531.37 209.8 519.78 209.8C508.38 209.8 500.02 204.67 500.02 196.5H482.16Z" fill="white"/>
<path d="M613.381 128.48C586.971 127.91 564.551 151.28 565.121 177.69C564.551 204.1 587.161 227.09 613.951 226.52C632.951 226.52 650.051 215.69 658.411 199.16L636.181 198.97C630.291 205.24 622.691 208.47 613.381 208.47C598.181 208.47 586.591 198.59 585.071 184.34H661.831C662.211 181.87 662.401 179.02 662.401 175.79C661.641 147.1 638.081 128.48 613.381 128.48ZM585.071 169.14C588.681 155.65 599.511 146.53 613.951 146.53C627.441 146.53 638.841 156.03 642.451 169.14H585.071Z" fill="white"/>
<path d="M756.361 175.03C756.361 144.06 739.831 128.48 714.561 128.48C689.291 128.48 672.761 144.06 672.761 175.03V225H691.381V175.03C691.381 156.03 699.551 146.53 714.561 146.53C729.571 146.53 737.741 156.03 737.741 175.03V225H756.361V175.03Z" fill="white"/>
<path d="M823.53 128.48C797.12 127.91 774.13 151.09 774.7 177.5V263H786.86V206.19C794.65 218.54 808.14 226.52 823.53 226.52C849.75 227.09 872.93 203.91 872.55 177.5C872.93 151.09 849.75 127.91 823.53 128.48ZM860.39 177.5C860.39 198.02 843.86 214.93 823.53 214.93C802.82 214.93 786.67 198.4 786.67 177.5C786.67 156.6 802.63 140.07 823.53 140.07C844.24 140.07 860.39 156.6 860.39 177.5Z" fill="#00C8A0"/>
<path d="M980.149 177.5C980.719 151.09 957.539 127.91 931.129 128.48C904.719 127.91 881.539 151.09 882.109 177.5C881.539 203.91 904.719 227.09 931.129 226.52C957.539 227.09 980.719 203.91 980.149 177.5ZM894.269 177.5C894.269 156.6 910.799 140.07 931.319 140.07C951.839 140.07 967.989 156.6 967.989 177.5C967.989 198.4 951.839 214.93 931.319 214.93C910.799 214.93 894.269 198.02 894.269 177.5Z" fill="#00C8A0"/>
<path d="M990.676 225H1002.84V175.6C1002.84 152.8 1013.1 141.02 1029.63 141.02C1030.96 141.02 1031.91 141.02 1032.48 141.21V129.62C1031.91 129.43 1030.96 129.43 1029.63 129.43C1005.88 129.43 990.676 145.01 990.676 175.6V225Z" fill="#00C8A0"/>
<path d="M1091.43 141.59V130H1067.49V99.9797H1055.33V130H1041.08V141.59H1055.33V180.16C1055.33 208.28 1069.2 223.29 1091.43 225.57V213.79C1076.23 211.51 1067.49 200.3 1067.49 179.78V141.59H1091.43Z" fill="#00C8A0"/>
<path d="M1112.68 225H1124.84V141.59H1148.78V130H1125.22C1126.55 114.61 1135.67 105.3 1148.78 103.02V91.4297C1128.07 93.5197 1115.15 107.01 1113.06 130H1098.43V141.59H1112.68V225Z" fill="#00C8A0"/>
<path d="M1245.85 177.5C1246.42 151.09 1223.24 127.91 1196.83 128.48C1170.42 127.91 1147.24 151.09 1147.81 177.5C1147.24 203.91 1170.42 227.09 1196.83 226.52C1223.24 227.09 1246.42 203.91 1245.85 177.5ZM1159.97 177.5C1159.97 156.6 1176.5 140.07 1197.02 140.07C1217.54 140.07 1233.69 156.6 1233.69 177.5C1233.69 198.4 1217.54 214.93 1197.02 214.93C1176.5 214.93 1159.97 198.02 1159.97 177.5Z" fill="#00C8A0"/>
<path d="M1268.54 225V91.9997H1256.38V225H1268.54Z" fill="#00C8A0"/>
<path d="M1283.65 105.68C1283.65 110.24 1287.07 113.47 1291.44 113.47C1295.81 113.47 1299.23 110.24 1299.23 105.68C1299.23 101.31 1295.81 98.0797 1291.44 98.0797C1287.07 98.0797 1283.65 101.31 1283.65 105.68ZM1285.36 225H1297.52V130H1285.36V225Z" fill="#00C8A0"/>
<path d="M1407.65 177.5C1408.22 151.09 1385.04 127.91 1358.63 128.48C1332.22 127.91 1309.04 151.09 1309.61 177.5C1309.04 203.91 1332.22 227.09 1358.63 226.52C1385.04 227.09 1408.22 203.91 1407.65 177.5ZM1321.77 177.5C1321.77 156.6 1338.3 140.07 1358.82 140.07C1379.34 140.07 1395.49 156.6 1395.49 177.5C1395.49 198.4 1379.34 214.93 1358.82 214.93C1338.3 214.93 1321.77 198.02 1321.77 177.5Z" fill="#00C8A0"/>
<rect x="0.00488281" y="92.1119" width="43.1162" height="133.268" fill="#00C8A0"/>
<path fill-rule="evenodd" clip-rule="evenodd" d="M141.615 92.1119C141.615 65.0611 119.453 43.1321 92.1142 43.1321V21.5661L92.1141 0C143.527 -2.24734e-06 185.206 41.2399 185.206 92.1119C185.206 143.199 144.055 184.674 93.0919 185.199V185.204C92.9288 185.204 92.7659 185.203 92.603 185.203C92.4948 185.203 92.3865 185.204 92.2782 185.204C92.2235 185.204 92.1688 185.204 92.1142 185.204V185.199C41.4699 184.678 0.514918 143.716 0.00485185 93.0689H0C0 92.9081 0.000407446 92.7475 0.00122135 92.5869C0.000430796 92.4287 3.50497e-05 92.2704 3.50497e-05 92.1119H0.00481681C0.25707 67.0646 10.4013 44.386 26.7173 27.7962L59.8324 56.4058C49.9657 65.3619 43.7296 78.2459 43.5933 92.5885C43.8475 119.545 65.6483 141.35 92.603 141.61C119.716 141.348 141.615 119.287 141.615 92.1119Z" fill="#00E3B4"/>
</svg>
